<svg xmlns="http://www.w3.org/2000/svg" height="800" width="1200" fill="none" viewBox="-20.735 -7.662 179.699 45.97"><path fill="#000" d="M55.48 11.867a.57.57 0 0 1-.756-.15 4.382 4.382 0 0 0-3.723-1.875c-2.836 0-4.577 2.244-4.577 5.45s1.773 5.492 4.61 5.492a4.332 4.332 0 0 0 3.729-1.961.564.564 0 0 1 .745-.167l1.347.78a.574.574 0 0 1 .209.844 7.01 7.01 0 0 1-6.027 3.117c-4.535 0-7.609-3.29-7.609-8.087s3.074-8.045 7.541-8.045a7.144 7.144 0 0 1 6 2.97.578.578 0 0 1-.157.83z"/><path fill="#000" d="M65.392 21.875v.653a.568.568 0 0 0 .592.567h1.482a.567.567 0 0 0 .568-.567v-7.41c0-2.684-1.908-3.794-4.61-3.794a9.311 9.311 0 0 0-4.353 1.092.57.57 0 0 0-.234.752l.486 1.014a.56.56 0 0 0 .772.244 6.964 6.964 0 0 1 3.096-.783c.94 0 2.049.259 2.049 1.22 0 1.005-1.214 1.176-2.712 1.387a98.292 98.292 0 0 0-.362.052c-1.546.216-4.052.699-4.052 3.51 0 2.258 1.634 3.545 3.988 3.545 1.592 0 2.581-.567 3.29-1.482zm-2.323-3.82c.895-.158 1.707-.3 2.17-.65v1.319c0 1.723-1.24 2.464-2.57 2.464-1.07 0-1.811-.479-1.811-1.504 0-1.113.85-1.386 1.875-1.57l.336-.06z" clip-rule="evenodd" fill-rule="evenodd"/><path fill="#000" d="M70.47 20.16a.567.567 0 0 1 .783-.075 5.273 5.273 0 0 0 3.297 1.064c1.223 0 2.127-.394 2.127-1.351 0-.872-.83-1.046-2.836-1.397-2.127-.355-4.162-1.064-4.162-3.489 0-2.528 2.18-3.595 4.666-3.595a6.98 6.98 0 0 1 4.322 1.418.567.567 0 0 1 .077.82l-.709.833a.57.57 0 0 1-.78.088 5.002 5.002 0 0 0-3.013-.964c-1.046 0-1.96.305-1.96 1.13 0 .92 1.283 1.093 2.57 1.313 2.747.478 4.492 1.262 4.492 3.545 0 2.397-1.918 3.879-4.964 3.879a7.15 7.15 0 0 1-4.609-1.504.574.574 0 0 1-.074-.815zm10.558 2.368V8.098a.567.567 0 0 1 .567-.567h1.635c.313 0 .567.254.567.567v4.928a4.255 4.255 0 0 1 3.51-1.702c2.418 0 3.836 1.723 3.836 4.184v7.02a.567.567 0 0 1-.567.567H88.94a.567.567 0 0 1-.567-.567v-6.382c0-1.223-.394-2.333-1.96-2.333-1.486 0-2.617 1.046-2.617 2.79v5.928a.567.567 0 0 1-.567.568h-1.635a.564.564 0 0 1-.567-.571z"/><path fill="#000" d="M107.952 19.238l1.177 3.474a.567.567 0 0 0 .528.397h2.025a.566.566 0 0 0 .466-.241.566.566 0 0 0 .07-.521l-5.337-14.43a.574.574 0 0 0-.535-.372h-2.62a.566.566 0 0 0-.532.354l-5.357 14.434a.567.567 0 0 0 .532.762h1.917a.564.564 0 0 0 .536-.383l1.18-3.474zm-5.233-2.422l2.29-6.758 2.202 6.758zm13.607-3.769v-.893a.563.563 0 0 0-.156-.42.567.567 0 0 0-.41-.176h-1.636a.567.567 0 0 0-.567.567v14.182c0 .314.254.568.567.568h1.635a.567.567 0 0 0 .567-.568v-4.705a4.16 4.16 0 0 0 3.546 1.745c3.137 0 5.165-2.627 5.165-6.027 0-3.4-2.028-5.996-5.165-5.996a4.167 4.167 0 0 0-3.546 1.723zm5.8 4.273c0 1.982-.918 3.62-2.836 3.62-1.953 0-2.964-1.635-2.964-3.62 0-1.986 1.064-3.578 2.964-3.578s2.836 1.596 2.836 3.578zm7.39-4.273v-.893a.564.564 0 0 0-.155-.421.565.565 0 0 0-.413-.175h-1.635a.567.567 0 0 0-.567.567v14.182c0 .313.254.567.567.567h1.635a.567.567 0 0 0 .567-.567v-4.705a4.168 4.168 0 0 0 3.546 1.745c3.141 0 5.17-2.628 5.17-6.028 0-3.4-2.029-5.995-5.17-5.995a4.174 4.174 0 0 0-3.546 1.723zm5.803 4.272c0 1.982-.918 3.62-2.836 3.62-1.943 0-2.968-1.634-2.968-3.62 0-1.985 1.067-3.577 2.968-3.577 1.9 0 2.836 1.595 2.836 3.577z" clip-rule="evenodd" fill-rule="evenodd"/><path fill="#00D54B" d="M19.954 0c3.092 0 4.613 0 6.282.525a6.503 6.503 0 0 1 3.9 3.9c.525 1.655.525 3.19.525 6.268v9.26c0 3.075 0 4.61-.525 6.27a6.503 6.503 0 0 1-3.9 3.9c-1.655.524-3.19.524-6.268.524h-9.29c-3.073 0-4.608 0-6.267-.525a6.503 6.503 0 0 1-3.9-3.9C0 24.566 0 23.045 0 19.954v-9.275C0 7.605 0 6.07.525 4.41a6.502 6.502 0 0 1 3.9-3.9C6.066 0 7.605 0 10.679 0z" clip-rule="evenodd" fill-rule="evenodd"/><path fill="#fff" d="M16.096 10.044a6.382 6.382 0 0 1 4.113 1.51.627.627 0 0 0 .862-.017l1.184-1.188a.606.606 0 0 0-.032-.89 9.388 9.388 0 0 0-3.166-1.772l.354-1.748a.617.617 0 0 0-.606-.741h-2.28a.62.62 0 0 0-.606.486L15.6 7.247c-3.035.149-5.609 1.652-5.609 4.733 0 2.663 2.127 3.808 4.375 4.61 2.127.79 3.255 1.084 3.255 2.198s-1.124 1.815-2.78 1.815a6.12 6.12 0 0 1-4.322-1.691.617.617 0 0 0-.865 0l-1.269 1.24a.613.613 0 0 0 0 .883 8.406 8.406 0 0 0 3.67 2.01l-.355 1.62a.631.631 0 0 0 .603.76h2.286a.62.62 0 0 0 .61-.49l.33-1.535c3.638-.223 5.86-2.18 5.86-5.045 0-2.638-2.215-3.751-4.906-4.659-1.539-.578-2.869-.957-2.869-2.099s1.241-1.553 2.482-1.553z"/></svg>